<?xml version="1.0" encoding="utf-8"?>
<!-- Generator: Adobe Illustrator 20.0.0, SVG Export Plug-In . SVG Version: 6.00 Build 0)  -->
<svg version="1.1" id="Layer_1" xmlns="http://www.w3.org/2000/svg" xmlns:xlink="http://www.w3.org/1999/xlink" x="0px" y="0px"
	 viewBox="0 0 180 180" style="enable-background:new 0 0 180 180;" xml:space="preserve">
<style type="text/css">
	.st0{fill:#3B5998;}
	.st1{fill:#FFFFFF;}
	.st2{fill:#55ACEE;}
	.st3{fill:#DC4E41;}
	.st4{fill:#B53088;}
	.st5{fill:#CB2027;}
	.st6{fill:#F26798;}
	.st7{fill:#4176FA;}
	@-webkit-keyframes pulse {
		0% {
		    opacity: 1;
		    -webkit-transform: scale(1);
		    transform: scale(1);
		}
		20% {
		    opacity: 0.8;
		}
		100% {
		    opacity: 0;
		    -webkit-transform: scale(1.3);
		    transform: scale(1.3);
		}
	}

	@keyframes pulse {
		0% {
		    opacity: 1;
		    -webkit-transform: scale(1);
		    transform: scale(1);
		}
		20% {
		    opacity: 0.8;
		}
		100% {
		    opacity: 0;
		    -webkit-transform: scale(1.3);
		    transform: scale(1.3);
		}
	}

	@-webkit-keyframes pulse2 {
		0% {
		    opacity: 1;
		    -webkit-transform: scale(1);
		    transform: scale(1);
		}
		20% {
		    opacity: 0.8;
		}
		100% {
		    opacity: 0;
		    -webkit-transform: scale(1.3);
		    transform: scale(1.3);
		}
	}

	@keyframes pulse2 {
		0% {
		    opacity: 1;
		    -webkit-transform: scale(1);
		    transform: scale(1);
		}
		20% {
		    opacity: 0.8;
		}
		100% {
		    opacity: 0;
		    -webkit-transform: scale(1.3);
		    transform: scale(1.3);
		}
	}

	@-webkit-keyframes mid {
		0% {
		    opacity: 1;
		    -webkit-transform: scale(1) rotate(0deg);
		    transform: scale(1) rotate(0deg);
		}
		3% {
		    opacity: 1;
		    -webkit-transform: scale(1.15) rotate(5deg);
		    transform: scale(1.15) rotate(5deg);
		}
		5.2% {
		    opacity: 1;
		    -webkit-transform: scale(1.1) rotate(-5deg);
		    transform: scale(1.1) rotate(-5deg);
		}
		8.2% {
		    opacity: 1;
		    -webkit-transform: scale(1.1) rotate(5deg);
		    transform: scale(1.1) rotate(5deg);
		}
		10.2% {
		    opacity: 1;
		    -webkit-transform: scale(1.1) rotate(-5deg);
		    transform: scale(1.1) rotate(-5deg);
		}
		12.2% {
		    opacity: 1;
		    -webkit-transform: scale(1.1) rotate(0deg);
		    transform: scale(1.1) rotate(0deg);
		}
		100% {
		    opacity: 1;
		    -webkit-transform: scale(1) rotate(0deg);
		    transform: scale(1) rotate(0deg);
		}
	}

	@keyframes mid {
		0% {
		    opacity: 1;
		    -webkit-transform: scale(1) rotate(0deg);
		    transform: scale(1) rotate(0deg);
		}
		3% {
		    opacity: 1;
		    -webkit-transform: scale(1.15) rotate(5deg);
		    transform: scale(1.15) rotate(5deg);
		}
		5.2% {
		    opacity: 1;
		    -webkit-transform: scale(1.1) rotate(-5deg);
		    transform: scale(1.1) rotate(-5deg);
		}
		8.2% {
		    opacity: 1;
		    -webkit-transform: scale(1.1) rotate(5deg);
		    transform: scale(1.1) rotate(5deg);
		}
		10.2% {
		    opacity: 1;
		    -webkit-transform: scale(1.1) rotate(-5deg);
		    transform: scale(1.1) rotate(-5deg);
		}
		12.2% {
		    opacity: 1;
		    -webkit-transform: scale(1.1) rotate(0deg);
		    transform: scale(1.1) rotate(0deg);
		}
		100% {
		    opacity: 1;
		    -webkit-transform: scale(1) rotate(0deg);
		    transform: scale(1) rotate(0deg);
		}
	}

	svg:hover .mid {
		-webkit-transform-origin: center center;
		-ms-transform-origin: center center;
		transform-origin: center center;
		-webkit-animation: mid 4s ease-in-out 1;
		animation: mid 4s ease-in-out 1;
	}

	svg:hover .pulse {
		-webkit-transform-origin: center center;
		-ms-transform-origin: center center;
		transform-origin: center center;
		-webkit-animation: pulse 1s ease-in-out infinite;
		animation: pulse 1s ease-in-out infinite;
	}

	svg:hover .pulse2 {
		-webkit-transform-origin: center center;
		-ms-transform-origin: center center;
		transform-origin: center center;
		-webkit-animation: pulse2 1s ease-in-out infinite;
		animation: pulse2 1s ease-in-out infinite;
		-webkit-animation-delay: 0.5s;
		animation-delay: 0.5s;
	}
</style>
<circle class="st2 pulse" cx="90" cy="90" r="60"/>
<circle class="st2 pulse2" cx="90" cy="90" r="60"/>
<circle class="st1" cx="90" cy="90" r="55"/>
<path class="st2 mid" d="M90,30c-33.1,0-60,26.9-60,60s26.9,60,60,60c33.1,0,60-26.9,60-60S123.1,30,90,30z M119.6,80.5
	c0,0.6,0,1.2,0,1.9c0,19-14.4,40.8-40.8,40.8c-8.1,0-15.6-2.4-22-6.4c1.1,0.1,2.3,0.2,3.4,0.2c6.7,0,12.9-2.3,17.8-6.1
	c-6.3-0.1-11.6-4.3-13.4-10c0.9,0.2,1.8,0.3,2.7,0.3c1.3,0,2.6-0.2,3.8-0.5c-6.6-1.3-11.5-7.1-11.5-14.1c0-0.1,0-0.1,0-0.2
	c1.9,1.1,4.1,1.7,6.5,1.8c-3.8-2.6-6.4-7-6.4-11.9c0-2.6,0.7-5.1,1.9-7.2c7.1,8.7,17.6,14.4,29.6,15c-0.2-1-0.4-2.1-0.4-3.3
	c0-7.9,6.4-14.3,14.3-14.3c4.1,0,7.9,1.7,10.5,4.5c3.3-0.6,6.3-1.8,9.1-3.5c-1.1,3.3-3.3,6.2-6.3,7.9c2.9-0.3,5.7-1.1,8.2-2.3
	C124.8,76,122.4,78.5,119.6,80.5z"/>
</svg>
