<svg xmlns="http://www.w3.org/2000/svg" width="802" height="329" viewBox="0 0 802 329">
  <metadata><?xpacket begin="﻿" id="W5M0MpCehiHzreSzNTczkc9d"?>
<x:xmpmeta xmlns:x="adobe:ns:meta/" x:xmptk="Adobe XMP Core 5.6-c138 79.159824, 2016/09/14-01:09:01        ">
   <rdf:RDF xmlns:rdf="http://www.w3.org/1999/02/22-rdf-syntax-ns#">
      <rdf:Description rdf:about=""/>
   </rdf:RDF>
</x:xmpmeta>
                                                                                                    
                                                                                                    
                                                                                                    
                                                                                                    
                                                                                                    
                                                                                                    
                                                                                                    
                                                                                                    
                                                                                                    
                                                                                                    
                                                                                                    
                                                                                                    
                                                                                                    
                                                                                                    
                                                                                                    
                                                                                                    
                                                                                                    
                                                                                                    
                                                                                                    
                                                                                                    
                           
<?xpacket end="w"?></metadata>
<defs>
    <style>
      .cls-1 {
        fill: #fff;
        fill-rule: evenodd;
      }
    </style>
  </defs>
  <path id="_26_gigapixels" data-name="26 gigapixels" class="cls-1" d="M-2,0H802V329H-2V0ZM70.56,4.649H3.59V194.171h42.3V141.3H71.1q42.024,0,62.5-16.268t20.47-51.38q0-35.11-19.928-52.058T70.56,4.649h0Zm3.8,100.048H45.887V40.981H70.018q20.875,0,30.773,6.914t9.9,23.317q0,16.408-7.592,24.944T74.356,104.7h0Zm281.708,89.474L274.181,4.649H233.24L151.358,194.171h45.008L213.99,153.23h79.442l17.624,40.941h45.008Zm-78.629-78.086H229.987l23.859-55.04ZM512.913,19.561Q494.064,4.653,449.874,4.649h-71.85V194.171h42.3V133.708H449.6l42.026,60.463h52.057L495.7,126.388q36.057-13.281,36.061-58.836Q531.757,34.476,512.913,19.561ZM451.23,97.105H420.321V40.981h31.722q20.336,0,28.469,5.694t8.134,21.013q0,15.321-7.862,22.368T451.23,97.105h0Zm123.9,97.066h42.3V4.649h-42.3V194.171ZM725.068,37.456q26.3,0,50.973,18.708l21.42-30.909A101.727,101.727,0,0,0,764.383,6.818,116.432,116.432,0,0,0,726.424.311q-29.016,0-48.4,14.641T658.641,56.571q0,26.982,15.319,39.585t48.4,20.471q20.876,5.154,27.927,10.168a15.8,15.8,0,0,1,7.049,13.556,16.1,16.1,0,0,1-6.643,13.557q-6.647,5.02-18.3,5.016-26.03,0-56.667-26.842l-25.215,30.909q36.056,33.349,81.069,33.349,31.176,0,50.295-15.861t19.115-41.348q0-25.482-14.913-38.772t-41.89-19.928Q717.2,73.79,709.749,68.908t-7.456-13.15a16.349,16.349,0,0,1,6.1-13.285q6.1-5.014,16.674-5.016h0ZM14.233,308.051L1.454,321.141v7.23h30.73v-8.726h-17.2l7.854-8.166a42.144,42.144,0,0,0,6.327-7.885,13.1,13.1,0,0,0,1.714-6.451,12.071,12.071,0,0,0-4.27-9.756,14.957,14.957,0,0,0-9.911-3.584,16.42,16.42,0,0,0-9.288,2.431,24.134,24.134,0,0,0-6.7,7.169L8.5,298.015q3.677-5.857,7.792-5.859a4.926,4.926,0,0,1,3.678,1.465,5.008,5.008,0,0,1,1.434,3.646,7.876,7.876,0,0,1-1.652,4.519,55.732,55.732,0,0,1-5.516,6.265h0Zm74.425-14.9a13.825,13.825,0,0,1,2.836,1.621q0.716,0.624,1.091,1l4.613-6.856a36.806,36.806,0,0,0-3.3-2.369,20.044,20.044,0,0,0-4.27-1.839,18.714,18.714,0,0,0-5.828-.9,16.361,16.361,0,0,0-12.342,5.236,17.962,17.962,0,0,0-4.02,7.137,34.1,34.1,0,0,0-1.465,10.5q0,9.29,3.74,15.459a12.9,12.9,0,0,0,5.267,4.955,17.048,17.048,0,0,0,8.01,1.777,15.839,15.839,0,0,0,11.064-3.989,13.655,13.655,0,0,0,4.394-10.628q0-6.639-4.083-10.628a14,14,0,0,0-10.191-3.989,15.584,15.584,0,0,0-8.6,2.618,13.744,13.744,0,0,1,2.712-7.387,7.627,7.627,0,0,1,6.264-2.711A9.648,9.648,0,0,1,88.658,293.153Zm-0.81,16.612a6.8,6.8,0,0,1,1.683,4.675,5.9,5.9,0,0,1-1.87,4.519,6.585,6.585,0,0,1-4.675,1.745,6.188,6.188,0,0,1-4.675-1.963,6.582,6.582,0,0,1-1.87-4.706,5.639,5.639,0,0,1,1.963-4.457,7.128,7.128,0,0,1,4.862-1.714A5.808,5.808,0,0,1,87.847,309.765Zm117.87,8.384a16.7,16.7,0,0,1-8.415,1.932,11.771,11.771,0,0,1-8.695-3.709,15.049,15.049,0,0,1,.156-19.822,12.765,12.765,0,0,1,9.35-3.771,14.486,14.486,0,0,1,5.329.966,19.3,19.3,0,0,1,5.392,3.522l5.049-7.293a23.7,23.7,0,0,0-16.3-6.171,22.1,22.1,0,0,0-16.02,6.483,23.029,23.029,0,0,0-.124,32.226,22.163,22.163,0,0,0,16.113,6.358q11.468,0,17.951-7.231V306.181h-9.786v11.968ZM251.1,328.371h9.724V284.8H251.1v43.57Zm75.672-10.222a16.7,16.7,0,0,1-8.415,1.932,11.773,11.773,0,0,1-8.7-3.709,15.052,15.052,0,0,1,.156-19.822,12.765,12.765,0,0,1,9.35-3.771,14.486,14.486,0,0,1,5.329.966,19.3,19.3,0,0,1,5.392,3.522l5.049-7.293a23.7,23.7,0,0,0-16.3-6.171,22.1,22.1,0,0,0-16.019,6.483,23.028,23.028,0,0,0-.125,32.226A22.163,22.163,0,0,0,318.6,328.87q11.467,0,17.952-7.231V306.181h-9.786v11.968Zm86.393,10.222L394.335,284.8h-9.412L366.1,328.371h10.347l4.052-9.412h18.263l4.052,9.412H413.16Zm-18.077-17.952H384.175l5.485-12.653ZM460.532,284.8h-15.4v43.57h9.724V316.216h5.8q9.662,0,14.368-3.74t4.706-11.812q0-8.071-4.582-11.968t-14.617-3.9h0Zm0.873,23H454.86V293.153h5.548q4.8,0,7.074,1.59t2.276,5.36a8.379,8.379,0,0,1-1.746,5.735q-1.746,1.963-6.607,1.963h0Zm52.857,20.57h9.724V284.8h-9.724v43.57ZM577.841,297.7l-8.29-12.9H557.894l13.651,21.255L556.9,328.371h11.719l9.225-14.336,9.287,14.336h11.844l-14.711-22.564L597.85,284.8H586.131Zm54.042-12.9v43.57h32.1v-8.6H641.607v-9.038h19.51v-8.29h-19.51v-8.976H663.3V284.8H631.883Zm95.992,43.57v-8.664H709.3V284.8h-9.723v43.57h28.3Zm48.058-36.028a19.187,19.187,0,0,1,11.718,4.3l4.924-7.106a23.4,23.4,0,0,0-7.6-4.239,26.777,26.777,0,0,0-8.727-1.5,17.93,17.93,0,0,0-11.126,3.366,11.279,11.279,0,0,0-4.457,9.568q0,6.2,3.522,9.1t11.126,4.706a21.165,21.165,0,0,1,6.421,2.338A3.632,3.632,0,0,1,783.35,316a3.7,3.7,0,0,1-1.527,3.117,6.839,6.839,0,0,1-4.207,1.153q-5.985,0-13.028-6.171l-5.8,7.106q8.289,7.667,18.638,7.667,7.167,0,11.562-3.647a11.764,11.764,0,0,0,4.395-9.5q0-5.859-3.429-8.914a22.293,22.293,0,0,0-9.63-4.581q-6.2-1.527-7.916-2.649a3.451,3.451,0,0,1-1.714-3.024,3.758,3.758,0,0,1,1.4-3.054,5.866,5.866,0,0,1,3.834-1.153h0Z"/>
</svg>
