<svg xmlns="http://www.w3.org/2000/svg" viewBox="0 0 2544.26 748.65"><defs><style>.cls-1{fill:#333;}.cls-2{fill:#fac40b;}.cls-3{fill:#f19409;}.cls-4{fill:#eb6a14;}.cls-5{fill:#e8531c;}.cls-6{fill:#e2341c;}.cls-7{fill:#de0a1f;}.cls-8{fill:#f7aa0d;}</style></defs><title>logo-kolor</title><g id="Layer_2" data-name="Layer 2"><g id="logo_Kolor" data-name="logo Kolor"><g id="black"><path class="cls-1" d="M1111.35,266.17a129.36,129.36,0,0,1-20,69.89q45.25,10.65,74.21,46.92t29,82.86V615.59H1128V465.84q0-27.29-19.63-46.92t-46.92-19.64H978.24q-27.3,0-46.93,19.64t-19.63,46.92V615.59H845.12V133.06h66.56V350.7a129.15,129.15,0,0,1,66.56-18q27.27,0,46.92-19.64t19.63-46.92V183h66.56Z"/><path class="cls-1" d="M1484.71,266.17q55.9,0,94.51,38.6t38.6,94.51v83.2q0,55.9-38.6,94.51t-94.51,38.6h-83.19q-55.9,0-94.51-38.6t-38.6-94.51v-83.2q0-55.9,38.6-94.51t94.51-38.6Zm0,66.56h-83.19q-27.3,0-46.92,19.63T1335,399.28v83.2q0,27.3,19.64,46.92T1401.52,549h83.19q27.29,0,46.92-19.63t19.64-46.92v-83.2q0-27.28-19.64-46.92T1484.71,332.73Z"/><path class="cls-1" d="M1697,482.48V133.06h66.56V482.48q0,27.3,19.63,46.92T1830.13,549v66.56q-55.91,0-94.51-38.6T1697,482.48Z"/><path class="cls-1" d="M2115.64,266.17q55.91,0,94.51,38.6t38.61,94.51v83.2q0,55.9-38.61,94.51t-94.51,38.6h-83.19q-55.9,0-94.51-38.6t-38.6-94.51v-83.2q0-55.9,38.6-94.51t94.51-38.6Zm0,66.56h-83.19q-27.3,0-46.92,19.63t-19.64,46.92v83.2q0,27.3,19.64,46.92T2032.45,549h83.19q27.29,0,46.93-19.63t19.63-46.92v-83.2q0-27.28-19.63-46.92T2115.64,332.73Z"/><path class="cls-1" d="M2461.06,332.73q-27.29,0-46.92,19.63t-19.63,46.92V615.59H2328V399.28q0-55.9,38.61-94.51t94.5-38.6h83.2v66.56Z"/><polygon class="cls-2" points="309.66 499.54 229.1 430 249.06 325.46 349.56 290.47 430.11 360.02 410.16 464.55 309.66 499.54"/><polygon class="cls-3" points="508.61 530.1 432.46 464.35 451.33 365.53 546.33 332.46 622.48 398.2 603.62 497.02 508.61 530.1"/><polygon class="cls-4" points="173.09 626.95 104.21 568.04 121.63 479.09 207.92 449.05 276.79 507.96 259.38 596.9 173.09 626.95"/><polygon class="cls-5" points="389.57 645.43 327.42 592.05 342.99 511.62 420.69 484.56 482.84 537.94 467.28 618.38 389.57 645.43"/><polygon class="cls-6" points="549.72 659.43 498.81 616.04 511.78 550.41 575.65 528.18 626.56 571.57 613.6 637.19 549.72 659.43"/><polygon class="cls-7" points="463.73 748.65 420.22 711.09 430.99 654.63 485.28 635.73 528.79 673.3 518.01 729.75 463.73 748.65"/><polygon class="cls-5" points="38.27 582.72 0 549.68 9.48 500.01 57.23 483.39 95.5 516.43 86.02 566.1 38.27 582.72"/><polygon class="cls-3" points="116.97 447.47 52.38 391.7 68.38 307.89 148.96 279.83 213.56 335.6 197.56 419.42 116.97 447.47"/><polygon class="cls-8" points="454.67 337.67 391.15 293.69 397.38 216.69 467.11 183.67 530.63 227.64 524.4 304.64 454.67 337.67"/><polygon class="cls-8" points="286.35 285.65 225.93 244.45 232.34 171.61 299.19 139.95 359.62 181.14 353.2 253.99 286.35 285.65"/><polygon class="cls-5" points="153.28 239.66 92.54 212.53 85.67 146.36 139.53 107.31 200.28 134.45 207.16 200.62 153.28 239.66"/><polygon class="cls-7" points="206.94 103.68 153.75 92.13 137.17 40.28 173.77 0 226.96 11.56 243.55 63.4 206.94 103.68"/><polygon class="cls-5" points="610.83 267.99 556.93 237.49 556.39 175.55 609.76 144.12 663.66 174.63 664.19 236.56 610.83 267.99"/><polygon class="cls-7" points="665.76 152.65 630.25 140.37 623.13 103.47 651.52 78.86 687.03 91.14 694.15 128.03 665.76 152.65"/></g></g></g></svg>