<svg xmlns="http://www.w3.org/2000/svg" xmlns:xlink="http://www.w3.org/1999/xlink" viewBox="0 0 620 154.07"><defs><style>.cls-1{fill:#fff;}.cls-2{fill:none;}.cls-3{fill:url(#Dégradé_sans_nom_14);}</style><linearGradient id="Dégradé_sans_nom_14" x1="146.31" y1="154.07" x2="146.31" gradientUnits="userSpaceOnUse"><stop offset="0" stop-color="#0056a4"/><stop offset="0.8" stop-color="#009de1"/></linearGradient></defs><title>logo-forge-js-reversed</title><g id="Layer_2" data-name="Layer 2"><g id="artwork"><polygon class="cls-1" points="8.07 111.39 63.39 111.39 63.39 105.07 8.07 105.07 8.07 81.16 65.62 81.16 65.62 74.83 0 74.83 0 143.76 8.07 143.76 8.07 111.39"/><path class="cls-1" d="M406.5,123.69c0,9.38-5.11,13.75-16.08,13.75H353.18c-5.47,0-9.32-1-12.12-3-3.45-2.56-5.13-6.7-5.13-12.67V95.3c0-14.07,9.85-15.7,17.25-15.7h24.7c12.65,0,19,.32,22.89,2.2,4.3,2.06,5.27,5.93,5.34,11.9h7.49V91.9c0-7.15-2.6-12.09-8-15.13-4.15-2.35-9.86-3.49-17.46-3.49h-36c-9.25,0-15.34,2-19.14,6.26-3.56,4-5.21,10.14-5.21,19.36v19.25c0,9.21,1.65,15.37,5.21,19.35,3.8,4.27,9.89,6.26,19.14,6.26h39.28c8.78,0,14.49-1.76,18-5.56s5.11-10.06,5.11-19.67v-9H370.44v6.32H406.5Z"/><polygon class="cls-1" points="441.39 111.39 498.65 111.39 498.65 105.07 441.39 105.07 441.39 81.16 500.99 81.16 500.99 74.83 433.32 74.83 433.32 143.76 501.37 143.76 501.37 137.44 441.39 137.44 441.39 111.39"/><path class="cls-1" d="M286.31,74.84H230.75v68.92h8.07V116H286c8.06,0,14.73,1,14.73,13.07v14.73h7.49V126.51c0-5.17-1.39-11.17-11.48-13l-.85-.18-1.82-.25-.06-.36,2.15-.3.66-.06c10.81-1,12.27-6.94,12.27-12.6V94C309.11,80.76,305.82,74.84,286.31,74.84ZM301,98.7c0,7.77-4.58,10.94-15.8,10.94H238.82V81.16h44.09C297,81.16,301,83.65,301,92.29Z"/><path class="cls-2" d="M111.71,91c-10.83,9.59-14,22.23-7.5,34.17,6.84,12.53,21.44,21.45,44.16,21.45,27.21,0,39.94-17.31,35.47-46.54C178.37,71.82,134.21,72.65,111.71,91Z"/><path class="cls-3" d="M131.74,0C120.49,65.18,84.79,65.78,80.88,99.47c-3.42,44,27.53,54.37,68.22,54.6h1.32C249.2,153.14,218.93,50.12,131.74,0Zm16.63,146.6c-22.72,0-37.32-8.92-44.16-21.45-6.51-11.94-3.33-24.58,7.5-34.17,22.5-18.33,66.66-19.16,72.13,9.08C188.31,129.29,175.58,146.6,148.37,146.6Z"/><path class="cls-1" d="M516.41,133.13h10.53v10.23H516.41Z"/><path class="cls-1" d="M532.81,127.72h10.83v3.21c0,2.7,1.4,3.81,4.86,3.81h4.41c3.67,0,5.82-.45,5.82-3.81V107.06h11.13v24.77c0,10-5.46,11.93-15.54,11.93h-7.27c-10.43,0-14.24-3.21-14.24-11.68Z"/><path class="cls-1" d="M574.22,131.48h11.13c0,3.86,1.61,4.16,4.82,4.16H603.8c2.36,0,4.77-.25,4.77-3.06,0-3.16-1.31-3.36-15.65-3.36-16.74,0-18.65-2-18.65-10.93,0-6.57.6-11.63,14.64-11.63h15.55c12.83,0,14,4.36,14,10.73v1.15H607.36c0-2.66-.3-3.76-5.41-3.76H589.61c-2.5,0-4.21.85-4.21,2.81,0,3.16,1.36,3.26,13.29,3.21,17.3,0,21.31,1,21.31,11.58,0,9.78-3.31,11.38-18.1,11.38H588.41c-10.13,0-14.19-1.9-14.19-9.78Z"/></g></g></svg>