<svg xmlns="http://www.w3.org/2000/svg" width="5000" height="3000" viewBox="0 0 5000 3000">
  <metadata><?xpacket begin="﻿" id="W5M0MpCehiHzreSzNTczkc9d"?>
<x:xmpmeta xmlns:x="adobe:ns:meta/" x:xmptk="Adobe XMP Core 5.6-c138 79.159824, 2016/09/14-01:09:01        ">
   <rdf:RDF xmlns:rdf="http://www.w3.org/1999/02/22-rdf-syntax-ns#">
      <rdf:Description rdf:about=""/>
   </rdf:RDF>
</x:xmpmeta>





















<?xpacket end="w"?></metadata>
<defs>
    <style>
      .cls-1 {
        fill: #fff;
        fill-rule: evenodd;
      }
    </style>
  </defs>
  <path id="Rectangle_1_copy_3" data-name="Rectangle 1 copy 3" class="cls-1" d="M2901,3000v-1H2097v1H-2V0H5000V3000H2901Zm-29.9-1371.5a5.837,5.837,0,0,1,3.83-1.16,19.23,19.23,0,0,1,11.72,4.3l4.93-7.1a23.5,23.5,0,0,0-7.61-4.24,26.717,26.717,0,0,0-8.73-1.5,17.953,17.953,0,0,0-11.12,3.37,11.278,11.278,0,0,0-4.46,9.57q0,6.195,3.52,9.1t11.13,4.7q4.8,1.185,6.42,2.34a3.869,3.869,0,0,1,.09,6.23,6.825,6.825,0,0,1-4.2,1.16q-5.985,0-13.03-6.17l-5.8,7.1q8.3,7.665,18.64,7.67,7.17,0,11.56-3.65a11.765,11.765,0,0,0,4.4-9.5q0-5.865-3.43-8.92a22.424,22.424,0,0,0-9.63-4.58q-6.21-1.53-7.92-2.65a3.437,3.437,0,0,1-1.71-3.02A3.731,3.731,0,0,1,2871.1,1628.5Zm-44.23,34.87v-8.66H2808.3V1619.8h-9.72v43.57h28.29Zm-203.88,0V1619.8h-9.73v43.57h9.73Zm-63.33-12.15q9.66,0,14.36-3.74c3.14-2.5,4.71-6.43,4.71-11.82s-1.53-9.37-4.58-11.96-7.93-3.9-14.62-3.9h-15.39v43.57h9.72v-12.15h5.8Zm-142.31,3.86a11.742,11.742,0,0,1-8.69-3.71,15.046,15.046,0,0,1,.15-19.82,12.784,12.784,0,0,1,9.35-3.77,14.346,14.346,0,0,1,5.33.97,18.973,18.973,0,0,1,5.39,3.52l5.05-7.3a23.7,23.7,0,0,0-16.3-6.17,22.085,22.085,0,0,0-16.02,6.49,23.012,23.012,0,0,0-.12,32.22,22.151,22.151,0,0,0,16.11,6.36q11.475,0,17.95-7.23v-15.46h-9.78v11.97A16.7,16.7,0,0,1,2417.35,1655.08Zm-57.53,8.29V1619.8h-9.72v43.57h9.72Zm-63.52-8.29a11.742,11.742,0,0,1-8.69-3.71,15.046,15.046,0,0,1,.15-19.82,12.784,12.784,0,0,1,9.35-3.77,14.346,14.346,0,0,1,5.33.97,18.973,18.973,0,0,1,5.39,3.52l5.05-7.3a23.7,23.7,0,0,0-16.3-6.17,22.085,22.085,0,0,0-16.02,6.49,23.012,23.012,0,0,0-.12,32.22,22.151,22.151,0,0,0,16.11,6.36q11.475,0,17.95-7.23v-15.46h-9.78v11.97A16.7,16.7,0,0,1,2296.3,1655.08Zm-119.02-25.21a7.605,7.605,0,0,1,6.26-2.71,9.741,9.741,0,0,1,4.12.99,14.042,14.042,0,0,1,2.83,1.62c0.48,0.42.85,0.75,1.09,1l4.62-6.86a37.388,37.388,0,0,0-3.31-2.36,19.351,19.351,0,0,0-4.27-1.84,18.752,18.752,0,0,0-5.82-.91,16.382,16.382,0,0,0-12.35,5.24,17.978,17.978,0,0,0-4.02,7.14,34.275,34.275,0,0,0-1.46,10.5q0,9.285,3.74,15.46a12.853,12.853,0,0,0,5.27,4.95,16.965,16.965,0,0,0,8.01,1.78,15.836,15.836,0,0,0,11.06-3.99,13.651,13.651,0,0,0,4.39-10.63q0-6.63-4.08-10.62a14,14,0,0,0-10.19-3.99,15.617,15.617,0,0,0-8.6,2.61A13.693,13.693,0,0,1,2177.28,1629.87Zm-58.53,6.92a56.3,56.3,0,0,1-5.52,6.26l-12.78,13.09v7.23h30.73v-8.73h-17.2l7.85-8.16a41.764,41.764,0,0,0,6.33-7.89,13.1,13.1,0,0,0,1.72-6.45,12.081,12.081,0,0,0-4.27-9.75,14.969,14.969,0,0,0-9.92-3.59,16.4,16.4,0,0,0-9.28,2.43,24.164,24.164,0,0,0-6.7,7.17l7.79,4.62q3.675-5.865,7.79-5.86a4.912,4.912,0,0,1,3.68,1.46,5.031,5.031,0,0,1,1.43,3.65A7.9,7.9,0,0,1,2118.75,1636.79Zm114.39-280.2q-19.92-16.935-63.58-16.94h-66.97v189.52h42.3V1476.3h25.21q42.03,0,62.5-16.27t20.47-51.38Q2253.07,1373.55,2233.14,1356.59Zm140.04-16.94h-40.94l-81.88,189.52h45.01l17.62-40.94h79.44l17.63,40.94h45Zm102.27,323.72,4.05-9.41h18.26l4.05,9.41h10.35l-18.82-43.57h-9.42l-18.82,43.57h10.35Zm155.31-260.82q0-33.075-18.85-47.99t-63.04-14.91h-71.85v189.52h42.3v-60.46h29.28l42.03,60.46h52.06l-47.99-67.78Q2630.745,1448.1,2630.76,1402.55Zm26.13,217.25,13.66,21.26-14.65,22.31h11.72l9.22-14.34,9.29,14.34h11.84l-14.71-22.56,13.59-21.01h-11.72l-8.29,12.9-8.29-12.9h-11.66Zm59.54-280.15h-42.29v189.52h42.29V1339.65Zm14.45,323.72h32.1v-8.6h-22.37v-9.04h19.51v-8.29h-19.51v-8.98h21.69v-8.66h-31.42v43.57Zm76.51-285.9q6.105-5.01,16.68-5.01,26.295,0,50.97,18.7l21.42-30.9a101.619,101.619,0,0,0-33.08-18.44,116.37,116.37,0,0,0-37.96-6.51q-29.01,0-48.39,14.64-19.4,14.64-19.39,41.62t15.32,39.59q15.315,12.6,48.4,20.47,20.865,5.145,27.92,10.16a15.816,15.816,0,0,1,7.05,13.56,16.1,16.1,0,0,1-6.64,13.56q-6.645,5.01-18.3,5.01-26.025,0-56.67-26.84l-25.21,30.91q36.045,33.345,81.07,33.35,31.17,0,50.29-15.86t19.12-41.35q0-25.485-14.92-38.77t-41.89-19.93q-26.97-6.645-34.43-11.52-7.455-4.89-7.46-13.15A16.384,16.384,0,0,1,2807.39,1377.47Zm-257.16,54.64h-30.91v-56.13h31.72q20.34,0,28.47,5.69t8.14,21.02q0,15.315-7.87,22.37T2550.23,1432.11Zm-56.15,213.31h-10.9l5.48-12.65Zm-141.23-249.38,23.59,55.04h-47.45Zm-179.49,43.66h-28.47v-63.72h24.13q20.865,0,30.77,6.91t9.9,23.32q0,16.41-7.59,24.95T2173.36,1439.7Zm8.91,203.16a5.828,5.828,0,0,1,4.58,1.9,6.823,6.823,0,0,1,1.68,4.68,5.884,5.884,0,0,1-1.87,4.52,6.592,6.592,0,0,1-4.67,1.74,6.2,6.2,0,0,1-4.68-1.96,6.578,6.578,0,0,1-1.87-4.71,5.626,5.626,0,0,1,1.96-4.45A7.156,7.156,0,0,1,2182.27,1642.86Zm371.59-14.71h5.55q4.8,0,7.07,1.59t2.28,5.36a8.351,8.351,0,0,1-1.75,5.74q-1.74,1.965-6.6,1.96h-6.55v-14.65Z"/>
</svg>
