<svg xmlns="http://www.w3.org/2000/svg" viewBox="0 0 191 546">
    <defs>
        <style>
            @keyframes left {
                0% { fill: #ffffff; }
                50% { fill: #123456; }
                100% { fill: #ffffff; }
            }
            @keyframes right {
                0% { fill: #ffffff; }
                50% { fill: #123456; }
                100% { fill: #ffffff; }
            }
            @keyframes bottom {
                0% { fill: #ffffff; }
                50% { fill: #123456; }
                100% { fill: #ffffff; }
            }
            .cls-3,
            .cls-5,
            .cls-6 {
                animation-iteration-count: infinite;
            }
            .cls-3 {
                animation-name: left;
                animation-duration: 1.2s;
            }
            .cls-5 {
                animation-name: right;
                animation-duration: 0.9s;
                animation-delay: 0.3s;
            }
            .cls-6 {
                animation-name: bottom;
                animation-duration: 0.6s;
                animation-delay: 0.6s;
            }
            .cls-1 {
                isolation: isolate;
            }



        </style>
    </defs>
    <title>tour-eiffel</title>
    <g id="Layer_2" data-name="Layer 2">
        <g id="Shape_1" data-name="Shape 1" class="cls-1">
            <g id="Shape_1-2" data-name="Shape 1"><path class="cls-3" d="M95,0Zm0,0c0,.23-7.81,167.73-33,312C39.92,438.44,0,544,0,544s47-82,65-178S95,.3,95,0Z"/></g>
        </g>
        <g id="Shape_1_copy" data-name="Shape 1 copy" class="cls-1">
            <g id="Shape_1_copy-2" data-name="Shape 1 copy"><path class="cls-5" d="M103,124s.06,2.79.68,9.85c-.45-6.31-.68-9.85-.68-9.85Zm.68,9.85C106.2,169.4,115.71,293.47,131,375c18,96,60,162,60,162s-39.92-105.56-62-232c-18.26-104.57-23.71-152.6-25.32-171.15Z"/></g>
        </g>
        <g id="Shape_2" data-name="Shape 2" class="cls-1">
            <g id="Shape_2-2" data-name="Shape 2"><path class="cls-6" d="M97.89,465H96.71C36.41,466,0,546,0,546s36.41-68.7,97.84-68.7S190,541.9,190,541.9,157.43,465,97.89,465Z"/></g>
        </g>
    </g>
</svg>
